<svg id="Layer_1" data-name="Layer 1" xmlns="http://www.w3.org/2000/svg" viewBox="0 0 760.46 1015.5"><defs><style>.cls-1,.cls-3,.cls-6{fill:none;}.cls-1,.cls-3{stroke:#d1d1d1;}.cls-1,.cls-3,.cls-4,.cls-6{stroke-miterlimit:10;}.cls-1{stroke-width:4px;}.cls-2{fill:#e3fb86;}.cls-3{stroke-width:2px;}.cls-4{stroke:#fff;}.cls-5{fill:#fff;}.cls-6{stroke:#000;}.cls-7{fill:#060633;}.cls-8{fill:#2f1a31;}.cls-9{fill:#d1d1d1;}.cls-10{fill:#2e1de7;}</style></defs><title>idea</title><path class="cls-1" d="M1648.53,1294.43c-5.4-34.78-9-64.67-11.52-89.56l-.1-1q-.44-4.36-.81-8.52l-.31-3.33q-.76-8.68-1.36-16.41c0-.53-.07-1-.12-1.57-.53-7.27-.56-7.93-.8-11.76-.1-1.55-.2-3.07-.28-4.54-1.71-29-1.27-43.86-1.27-43.86" transform="translate(-1135.07 -279.23)"/><line class="cls-1" x1="687.25" y1="880.01" x2="709.84" y2="1005.04"/><path class="cls-2" d="M1773.61,940.69s-23.1-43.8-81.27-33.23c-27.49,5-56.74,14.19-63.41,64.8-6,45.45-3.86,103.23,3,191.16,0,0,74.92-30.31,194.17,2.43,0,0,7.07-137.7-6.6-212C1815.58,932.65,1781.39,954.66,1773.61,940.69Z" transform="translate(-1135.07 -279.23)"/><path class="cls-2" d="M1824.55,961.57l-47.87,2.91s-134.65,38.2-148.42,12.64c-20.34-37.73,1.31-74.62,1.31-74.62s49.73,1.8,74,2.2c8.79.15,29.62-1.15,38.23-2C1834.92,893.41,1824.55,961.57,1824.55,961.57Z" transform="translate(-1135.07 -279.23)"/><path class="cls-3" d="M1741.13,1257.74l8,34.17H1747l-7.86-33.61a77.37,77.37,0,0,0-32.46-41.59c-.81-.51-1.62-1-2.45-1.47l1-1.82.23.14A79.33,79.33,0,0,1,1741.13,1257.74Z" transform="translate(-1135.07 -279.23)"/><path class="cls-4" d="M1677.9,851.58a34.84,34.84,0,0,1-4.74,24.35c-7.6,12.55,1.13,21.44,11.66,16.46s14.87,8.49,28.31.72S1677.9,851.58,1677.9,851.58Z" transform="translate(-1135.07 -279.23)"/><path class="cls-5" d="M1741.78,902.69a16.34,16.34,0,0,1-13.51-9.47l-7.66-16.85-2.23-4.89-13.07-28.76,2.77,30,1.67,18,.47,5.13a8.21,8.21,0,0,1-6.6,8.8h-.07c-2.15,3.66-5.07,11.07,4.16,13.8,10.85,3.22,28.11-5.62,34.16-15.8Z" transform="translate(-1135.07 -279.23)"/><path class="cls-5" d="M1675.79,848.12c-.38-19.25,12-35.1,27.55-35.42s28.56,15,29,34.28-12,35.11-27.55,35.42S1676.18,867.37,1675.79,848.12Z" transform="translate(-1135.07 -279.23)"/><path class="cls-6" d="M1708.52,866.86s-4.48,10.46-15.75,2.2" transform="translate(-1135.07 -279.23)"/><path class="cls-7" d="M1701.32,847.94a.63.63,0,0,1-.44-.37.64.64,0,0,1,.34-.84,7,7,0,0,1,8.35,1.69.63.63,0,0,1,0,.9.7.7,0,0,1-.91,0,11.1,11.1,0,0,0-6.94-1.41A.56.56,0,0,1,1701.32,847.94Z" transform="translate(-1135.07 -279.23)"/><path class="cls-7" d="M1706.54,854.9c.08,1.53-.76,2.82-1.87,2.88s-2.07-1.14-2.15-2.67.76-2.82,1.87-2.88S1706.46,853.37,1706.54,854.9Z" transform="translate(-1135.07 -279.23)"/><path class="cls-7" d="M1678.45,851.76a.71.71,0,0,1-.55-.18.65.65,0,0,1,0-.91,7,7,0,0,1,8.37-1.63.66.66,0,0,1,.34.85.72.72,0,0,1-.85.34,11.05,11.05,0,0,0-7,1.34A.67.67,0,0,1,1678.45,851.76Z" transform="translate(-1135.07 -279.23)"/><path class="cls-7" d="M1685.93,856.2c.66,1.38.38,2.89-.63,3.37s-2.35-.26-3-1.64-.37-2.9.63-3.38S1685.28,854.81,1685.93,856.2Z" transform="translate(-1135.07 -279.23)"/><path class="cls-4" d="M1691.47,819.26s.85,12.08,16,13.84,25.68,7.93,23.87,18.85-25.69,34-7.63,42.36,13.93-7.84,33.4-4.45,22.45-22.58,8.79-37.34-9.05-54.64-59.09-51.87S1675.92,843,1675.92,843,1691.77,832.61,1691.47,819.26Z" transform="translate(-1135.07 -279.23)"/><path class="cls-5" d="M1728.91,896.45l.14-.39c-3.72-1.41-5.94-3.48-6.77-6.32-2.31-7.88,6.83-20.23,14.89-31.13,2.15-2.89,4.17-5.62,6-8.23,5-7.26,5.25-15.8.73-22.3-5-7.21-14.38-10.12-24.39-7.59-18.51,4.69-26.51-6.35-26.59-6.46l-.33.23c.08.12,8.24,11.39,27,6.63,9.85-2.49,19,.35,24,7.43,4.5,6.45,4.22,14.61-.73,21.83-1.79,2.6-3.81,5.33-5.94,8.22-8.12,11-17.33,23.42-15,31.48C1722.75,892.78,1725.11,895,1728.91,896.45Z" transform="translate(-1135.07 -279.23)"/><path class="cls-8" d="M1824.55,963.46c-1.68,4.5-16.2,3.55-32.42-2.11s-21.66-10-21.82-14.81c-.15-4.14,11.69-7.16,27.91-1.49S1826.23,959,1824.55,963.46Z" transform="translate(-1135.07 -279.23)"/><path class="cls-5" d="M1703.78,1105.75c-29.27,4-29.5,5.59-45.76,1.18h0l.28-41.6,0-5.09c.13,0,3.3.51,8.52.88a160.62,160.62,0,0,0,19.75.14c23.14-1.26,55-8.18,73.28-34.29,14.7-20.93,15.18-74.05,15.84-75.73,1.88-4.85,23.79-1.09,33.46,3.33,4.35,2,7.92,5.34,8.75,10,5.07,28.67-1.29,60.61-20.7,88.28C1776.88,1081.88,1744.57,1100.17,1703.78,1105.75Z" transform="translate(-1135.07 -279.23)"/><path class="cls-9" d="M1441.38,899.57l-.65.34-1.13.57-.68.33c.67,1,1.33,2,2,3l1.8-.15,1.3-.07Q1442.75,901.6,1441.38,899.57Z" transform="translate(-1135.07 -279.23)"/><path class="cls-9" d="M1434.33,889.73c-.12-.15-.23-.31-.36-.46-.84.42-1.69.82-2.54,1.21.3.37.58.74.87,1.11l2.94-.66Z" transform="translate(-1135.07 -279.23)"/><path class="cls-9" d="M1441.38,899.57l-.65.34-1.13.57-.68.33c.67,1,1.33,2,2,3l1.8-.15,1.3-.07Q1442.75,901.6,1441.38,899.57Z" transform="translate(-1135.07 -279.23)"/><path class="cls-9" d="M1434,889.27c-.84.42-1.69.82-2.54,1.21.3.37.58.74.87,1.11l2.94-.66-.91-1.2C1434.21,889.58,1434.1,889.42,1434,889.27Z" transform="translate(-1135.07 -279.23)"/><path class="cls-9" d="M1434.33,889.73c-.12-.15-.23-.31-.36-.46-.84.42-1.69.82-2.54,1.21.3.37.58.74.87,1.11l2.94-.66Z" transform="translate(-1135.07 -279.23)"/><path class="cls-9" d="M1441.38,899.57l-.65.34-1.13.57-.68.33c.67,1,1.33,2,2,3l1.8-.15,1.3-.07Q1442.75,901.6,1441.38,899.57Z" transform="translate(-1135.07 -279.23)"/><path class="cls-9" d="M1465.84,969.48a11.45,11.45,0,0,1-1.46-.09,12.36,12.36,0,0,1-10.36-8.58l-.09-.17-.22-1c-.12-.58-3.12-14.41-12.44-33l-.08-.17a3.59,3.59,0,0,0-.17-.34l-.17-.34c-.15-.31-.24-.49-.34-.66l-.3-.59c-.54-1-1.1-2.11-1.69-3.17l-.06-.11c-.31-.58-.63-1.15-.93-1.7-.43-.77-.85-1.51-1.24-2.19l-.38-.66c-1.2-2.06-2.42-4.07-3.63-6l-.39-.61-1.47-1.54v-.72l-.5-.75-.21-.31-.33-.48c-.75-1.12-1.55-2.26-2.37-3.4-1-1.48-2.19-3-3.39-4.61l-.4-.5c-.1-.14-.21-.28-.32-.41l-4.57-5.66-1.7-2-.22-.24c-.42-.47-.83-.95-1.27-1.42l-.07-.08a173.18,173.18,0,0,0-47.13-37.17c-1-.52-1.93-1-2.9-1.54l-.84-.44a197.25,197.25,0,0,0-43-15.76h0c-1.47-.31-3-.61-4.4-.93l-.14,0a2.34,2.34,0,0,0-.32-.07l-1.65-.37c-6.8-1.55-13.5-3.3-19.91-5.22-41.59-12.43-76.06-32.8-102.44-60.54-26.56-27.93-44.12-62.48-52.19-102.69-14.82-73.71,3-157.77,48.87-230.61,48.5-77,120-128.75,201.23-145.65,96-19.95,196.63-1,269.33,50.64,55.2,39.23,90.06,94.8,98.14,156.49h0a487.57,487.57,0,0,1,4.35,63c0,78.71-22.55,139-68.94,184.19-.7.7-1.69,1.65-2.93,2.84-67,64.42-81.44,119.38-81.79,154.15,0,1.74,0,3.41,0,5,0,1.8,3,4.9,5.39,7.39,3.64,3.8,7.77,8.12,8.93,13.91a12.36,12.36,0,0,1-9.65,14.56l-144.82,30.11A12.19,12.19,0,0,1,1465.84,969.48Zm1.58-12.7v0Zm-13.6-36.32a171.13,171.13,0,0,1,13.23,34.73l141.37-29.4a38.57,38.57,0,0,0-4.66-5.47c-4-4.23-9.09-9.5-9.28-16.69,0-1.73-.06-3.58,0-5.5.35-35,12.82-70.93,37-106.91,19.17-28.44,40.1-48.58,49-57.18,1.17-1.12,2.1-2,2.75-2.67l.07-.07c43.57-42.46,64.75-99.44,64.75-174.2a473.57,473.57,0,0,0-4.23-61.13c-7.58-57.78-40.38-110-92.37-146.89-69.58-49.45-166.17-67.53-258.37-48.36-77.5,16.12-145.78,65.63-192.24,139.41-44,69.84-61.11,150.16-47,220.39,7.55,37.58,23.9,69.81,48.61,95.81s57.09,45,96.31,56.76c6.12,1.83,12.5,3.51,19,5l1.32.3.72.16,4.21.89.38.08a210.75,210.75,0,0,1,47,17.39l1.06.57,2,1.09a187,187,0,0,1,50.89,40.13l1.39,1.55.27.31c1.15,1.31,2.25,2.62,3.3,3.88l5.7,6.79-.26.13c.88,1.19,1.74,2.36,2.54,3.49s1.77,2.5,2.59,3.72l.76,1.13c.19.28.37.56.55.84s.37.56.57.86l.21.21.36.67,1,1.49q1.85,2.94,3.62,6l.42.72c.42.74.88,1.54,1.34,2.38.33.59.66,1.2,1,1.81.65,1.17,1.28,2.35,1.91,3.58l.07.15c.07.13.15.27.21.4s.27.52.44.87l.08.15C1453.6,920,1453.72,920.24,1453.82,920.46Zm156.51,4.94h0Z" transform="translate(-1135.07 -279.23)"/><path class="cls-9" d="M1376.18,423.11l-.26-.48-.05-.06c-6.14-10.13-23.84-14.78-55.65-14.59-12.43.08-26.85,7.66-39.55,20.83-16.05,16.65-25.3,37.81-24.73,56.62.59,19.5,12,35.29,27.81,38.38.86.17,1.79.31,2.87.42a26.46,26.46,0,0,0,2.66.13c12.61,0,23.63-8.66,30.51-24.15,14.78-33.27,47.86-52,51.58-54.08l.42-.23.13-.06,1-.55.91-1.5C1379.82,434,1378.42,427.11,1376.18,423.11Zm-12.75,12.45c-8.37,4.86-40.45,25.18-55.62,59.33-4.93,11.08-12.21,17-19.91,16.29a15.31,15.31,0,0,1-1.58-.23c-9.77-1.91-16.87-12.57-17.28-25.92-.46-15.35,7.41-33,21.07-47.12,10-10.32,21.53-16.76,30.19-16.81h1.62c36.3,0,42,7,42.8,8.39l0,0C1365.35,430.66,1364.86,432.86,1363.43,435.56Z" transform="translate(-1135.07 -279.23)"/><path class="cls-9" d="M1511,761.29a161.51,161.51,0,0,0,24.5-13.85c23-15.85,36.73-34.33,36.66-49.44-.07-15.36-10.06-27.43-26.07-31.49-18.34-4.64-43,1.86-54.74,23.26-6.18,11.29-2.54,36.37,4.57,64.13a135,135,0,0,1-25.91,6.93c-6.75-22.7-14.43-43.53-22.94-59a95.05,95.05,0,0,0-10-15l-.34-.41c-9.4-11-18.14-14.45-24.94-14.88a20.34,20.34,0,0,0-2.46,0,23,23,0,0,0-7,1.37c-13.09,4.74-22,20.85-22.24,40.08-.18,16.49,5.79,31,16.64,41.77.63.62,1.28,1.23,1.94,1.83a63.07,63.07,0,0,0,19.69,11.94c2.4.93,4.84,1.75,7.35,2.47h0a95.3,95.3,0,0,0,18.84,3.38,110.89,110.89,0,0,0,16.32.11c18.53,67,29.59,147.2,29.75,148.41l6.18-.84h0c2-.52,4.05-1,6.15-1.52-1.24-9-11.72-83.1-29.5-147.54,2.25-.38,4.5-.82,6.77-1.32a149.24,149.24,0,0,0,19-5.57c4.77,16.92,10.45,34.21,15.69,49.52,15.45,45.1,32.79,87.6,36.32,96.2q3.16-.44,6.44-.84h0l5.8-2.41c-.2-.47-19.62-47.19-36.7-97.07C1520,791.59,1514.84,775,1511,761.29Zm-61,.86a86.37,86.37,0,0,1-8.66-.69,78.7,78.7,0,0,1-18.4-4.63,47.59,47.59,0,0,1-19.74-13.65c-.66-.78-1.28-1.58-1.86-2.38a47.43,47.43,0,0,1-8.64-27.65c.15-13.58,6-25.53,14-28.41a10.54,10.54,0,0,1,2.82-.6,10.85,10.85,0,0,1,1.89,0l.56.07c5.3.75,10.27,4.94,13.65,8.55.61.64,1.16,1.26,1.65,1.84a80.32,80.32,0,0,1,8.74,12.94h0c7.83,14,15,33.25,21.37,54.56C1454.87,762.22,1452.41,762.24,1450,762.15Zm52.42-66.34c7.53-13.76,23-19.17,35.62-18a33,33,0,0,1,5,.86c5,1.25,16.52,5.66,16.59,19.36.05,10.45-12.5,26.14-31.21,39a149,149,0,0,1-20.67,11.83C1498.21,711.19,1500.4,699.43,1502.39,695.81Z" transform="translate(-1135.07 -279.23)"/><path class="cls-10" d="M1668.08,1061.19a60,60,0,0,1-5.22,20,24.17,24.17,0,0,1-4.72,6.73,54.13,54.13,0,0,1-11,8.53,131.26,131.26,0,0,1-19.22,9.31c-60.69,24.2-177.44,35-191.77,22.58-18.55-16.12-15.7-40-1-48.61,0,0-25.7-12.79-24.2-35.66s12.19-29.54,12.19-29.54-18.75-6.09-26.09-34.52c-3.92-15.18,1.39-34.7,33.34-51.37a167.27,167.27,0,0,1,19.9-8.65l1.25-.46,1.34-.48c6.93-2.44,14.63-4.77,23.18-7h0c2-.52,4-1,6.15-1.52,13.91-3.3,29.9-6.24,48.24-8.71q3.16-.43,6.44-.84h0c15.09-1.89,31.7-3.48,50-4.7a50.6,50.6,0,0,1,19.53,3.54c.92.37,1.84.77,2.77,1.21A39.08,39.08,0,0,1,1624.54,914c4.87,6.9,8.3,16.5,8.6,29.83,0,1.06,0,2.14,0,3.24,0,0,.6.43,1.61,1.24l.92.76c5.87,5,20,18.73,20.13,36.9.07,6.63-1.71,13.84-6.42,21.42-.55.89-1.15,1.79-1.79,2.7,0,0,.87.8,2.25,2.32a75.91,75.91,0,0,1,9,12.14C1664.2,1033.52,1669.25,1046.23,1668.08,1061.19Z" transform="translate(-1135.07 -279.23)"/><path class="cls-9" d="M1648.68,1013.09a3.1,3.1,0,0,1-1.52.15c-.18,0-18.42-2.5-44.81-.1-24.28,2.2-60.65,9.09-96,29.42a3.24,3.24,0,0,1-3.23-5.62c36.47-21,73.9-28,98.88-30.27,27.08-2.43,45.33.05,46.09.16a3.24,3.24,0,0,1,.62,6.26Z" transform="translate(-1135.07 -279.23)"/><path class="cls-9" d="M1634.24,950.07a3.21,3.21,0,0,1-1.2.18,417.53,417.53,0,0,0-55.4,2.65c-28.29,3.2-68,10.8-96.54,28.83a3.24,3.24,0,0,1-3.45-5.48c29.59-18.69,70.36-26.52,99.36-29.8a424.61,424.61,0,0,1,56.27-2.67,3.24,3.24,0,0,1,1,6.29Z" transform="translate(-1135.07 -279.23)"/><path class="cls-5" d="M1687.11,1064.63s-2.86-25.43-15.08-34.08-34.38-10.46-27.94-3.48,17.13,13.6,17.13,13.6-23.51-13.1-24.19-6.28,19.87,18,19.87,18-29.21-13.36-27.77-6.7,23.7,16.65,23.7,16.65-27.67-11.35-25.82-3.66,22.93,9.23,22.25,16-9.44,28.18,9.29,32.4Z" transform="translate(-1135.07 -279.23)"/><path class="cls-5" d="M1408.23,903.56s-6.64-10.6,3.08-16.59c12.39-7.63,35.13-5.26,27.35-.32-6.9,4.38-18.19,8.26-18.19,8.26s28.85-9.46,28.76-2.8-25,14.46-25,14.46,29-6.56,26.83-.3-24.69,13.49-24.69,13.49,27.94-7.93,25.32-.71-17.92,8.39-24.28,10.37c-6,1.87-9.16-1.4-10.55-7.33,0,0-4.81-5.1-4.74-9.2,0-1.57-1.76-2.57-2.22-3.58A39.62,39.62,0,0,1,1408.23,903.56Z" transform="translate(-1135.07 -279.23)"/><path class="cls-1" d="M1634.43,1175.59c.45,3.11,75.77-22.31,191.63,4.35" transform="translate(-1135.07 -279.23)"/><path class="cls-5" d="M1162.65,945.31s18.53.31,18.46-22.39c0,0,.07,22.47,18.61,22.57,0,0-18.54-.1-18.54,19.34C1181.18,964.83,1181.18,945.62,1162.65,945.31Z" transform="translate(-1135.07 -279.23)"/><path class="cls-5" d="M1858.46,714.63s18.54.3,18.46-22.4c0,0,.08,22.47,18.62,22.57,0,0-18.54-.1-18.54,19.35C1877,734.15,1877,714.93,1858.46,714.63Z" transform="translate(-1135.07 -279.23)"/><path class="cls-5" d="M1732.3,320s28.28.46,28.17-34.17c0,0,.11,34.29,28.4,34.44,0,0-28.29-.15-28.29,29.52C1760.58,349.81,1760.58,320.48,1732.3,320Z" transform="translate(-1135.07 -279.23)"/><ellipse class="cls-5" cx="543.77" cy="669.72" rx="21.8" ry="20.97"/><ellipse class="cls-5" cx="577.15" cy="735.7" rx="14.68" ry="14.12"/><ellipse class="cls-5" cx="626.67" cy="644.63" rx="17.49" ry="16.82"/><ellipse class="cls-5" cx="644.16" cy="837.07" rx="20.32" ry="19.55"/></svg>