<svg id="Layer_1" data-name="Layer 1" xmlns="http://www.w3.org/2000/svg" viewBox="0 0 31.96 31.96"><defs><style>.cls-1{fill:#e3ff7d;stroke-width:0.5px;}.cls-1,.cls-2{stroke:#e3ff7d;stroke-miterlimit:10;}.cls-2{fill:none;}</style></defs><title>interactive</title><path id="touch" class="cls-1" d="M19.07,28.5c-4.13,0-6-1.8-8.47-4.56-.69-.77-2.8-3.06-2.8-3.06l-.41-.45c-1-1.09-1.45-1.64-1.45-2a1.28,1.28,0,0,1,.85-1.1,3.63,3.63,0,0,1,3.52.21,32.25,32.25,0,0,1,2.95,3V8.67a1.84,1.84,0,0,1,1.92-1.92h0a1.84,1.84,0,0,1,1.92,1.92v6.22h5.33a3.42,3.42,0,0,1,3.62,3.37v3.26C26.06,25.15,25.21,28.5,19.07,28.5Zm-10.83-8s2.11,2.29,2.8,3.07c2.33,2.63,4.15,4.36,8,4.36,5.32,0,6.41-2.56,6.41-6.4V18.26a2.85,2.85,0,0,0-3-2.78H16.81a.29.29,0,0,1-.29-.29V8.67a1.34,1.34,0,0,0-2.67,0V21.29a.3.3,0,0,1-.19.28.3.3,0,0,1-.32-.08A42.91,42.91,0,0,0,10,18a3.08,3.08,0,0,0-2.9-.16c-.33.17-.53.38-.53.58A10.6,10.6,0,0,0,7.83,20Zm3.49-8A5.13,5.13,0,0,1,10,8.67a5.18,5.18,0,0,1,10.36,0,5.13,5.13,0,0,1-1.73,3.85l-.39-.44a4.59,4.59,0,1,0-6.12,0Z" transform="translate(-0.03 -0.03)"/><rect class="cls-2" x="0.5" y="0.5" width="30.96" height="30.96" rx="4.97"/></svg>