<svg id="Calque_2" data-name="Calque 2" xmlns="http://www.w3.org/2000/svg" viewBox="0 0 31.96 31.96"><defs><style>.cls-1{fill:#e3ff7d;}.cls-2{fill:none;stroke:#e3ff7d;stroke-miterlimit:10;}</style></defs><title>see</title><path class="cls-1" d="M16,10A13.92,13.92,0,0,0,4.74,15.61a.69.69,0,0,0,0,.78,14,14,0,0,0,22.52,0,.69.69,0,0,0,0-.78A13.92,13.92,0,0,0,16,10Zm0,10.66A12.75,12.75,0,0,1,6.23,16a12.64,12.64,0,0,1,19.54,0A12.68,12.68,0,0,1,16,20.62Z" transform="translate(-0.03 -0.03)"/><path class="cls-1" d="M16,12.8A3.2,3.2,0,1,0,19.2,16,3.21,3.21,0,0,0,16,12.8Zm0,5A1.78,1.78,0,1,1,17.78,16,1.78,1.78,0,0,1,16,17.78Z" transform="translate(-0.03 -0.03)"/><rect class="cls-2" x="0.5" y="0.5" width="30.96" height="30.96" rx="4.97"/></svg>